.
 
http://www.scenetime.com    -  Hottest private tracker on the net. !!!

New release on http://www.scenetime.com

        Seed back for speed


...................................NFO:.................................................                   
                                                  
                               
                                           
                   
                    
                         
                        
                      
                   
                   
                       
                           
                           
                                
                                       
                                    
                              SINCE 2011 
  


[b][size=4][color=red]i[/color][color=grey]N[/color][color=red]i[/color][color=grey]T[/color][color=red]i[/color][color=grey]ALan[/color][color=blue]I[/color][color=grey]me[/color] Presents....[/size][/b]


[center][title=darkorange]Alien vs Ninja[/title]
[img]http://leetleech.org/images/24425497318872010673.png[/img][center]


[IMG]http://lookpic.com/c1/i2/743/yoQRUIas.gif[/IMG]

[color=darkorange]General[/color]
Encoder                          : [color=green]unsentletter [iNiTiALanIme][/color]
Language                         : [color=cyan]Japanese with Hard coded English Subs [/color]
Complete name                    : Alien vs Ninja [iNiTiALanIme ENCODE]\Alien vs Ninja.avi
Format                           : AVI
Format/Info                      : Audio Video Interleave
Format profile                   : OpenDML
File size                        : 1.76 GiB
Duration                         : 1h 21mn
Overall bit rate                 : 3 105 Kbps
Movie name                       : Alien vs Ninja
Writing application              : Lavf52.78.4
Original source form/Name        : ALIENVSNINJA

[color=darkorange]Video[/color]
ID                               : 0
Format                           : AVC
Format/Info                      : Advanced Video Codec
Codec ID                         : H264
Duration                         : 1h 21mn
Bit rate                         : 2 645 Kbps
Width                            : 1 920 pixels
Height                           : 1 080 pixels
Display aspect ratio             : 16:9
Frame rate                       : 29.970 fps
Color space                      : YUV
Chroma subsampling               : 4:2:0
Bits/(Pixel*Frame)               : 0.043
Stream size                      : 1.50 GiB (85%)

[color=darkorange]Audio[/color]
ID                               : 1
Format                           : AC-3
Format/Info                      : Audio Coding 3
Mode extension                   : CM (complete main)
Codec ID                         : 2000
Duration                         : 1h 21mn
Bit rate mode                    : Constant
Bit rate                         : 448 Kbps
Channel(s)                       : 6 channels
Channel positions                : Front: L C R, Side: L R, LFE
Sampling rate                    : 48.0 KHz
Bit depth                        : 16 bits
Stream size                      : 260 MiB (14%)
Alignment                        : Aligned on interleaves
Interleave, duration             : 32 ms (0.96 video frame)
Interleave, preload duration     : 32 ms



[IMG]http://lookpic.com/c1/i2/698/8MSidD4l.gif[/IMG]

In ancient Japan, the fiercest ninjas of the Iga clan face their toughest enemies - and they aren't from this planet! A fiery mass crashes in the forest and soon horrifyingly savage creatures reduce the warriors to tasty snacks. But these jerks from outer space have bitten off more than they can chew.The ninjas' swords and throwing stars may fail against the unearthly goons, but their skills don't stop at sharp stuff. If you're into Army of Darkness, you'll be taking bets over who'll win this over-the-top battle for survival! 


[IMG]http://lookpic.com/c1/i2/1328/iOnqBn3r.gif[/IMG]

Mika Hijii    
Ben Hiura    
Shuji Kashiwabara    
Masanori Mimoto    
Yuki Ogoe    
Donpei Tsuchihira  


[IMG]http://lookpic.com/c1/i2/215/DY5NVHv4.gif[/IMG]




[IMG]http://lookpic.com/c1/i2/2445/lQZPrhCJ.gif[/IMG]

[IMG]http://lookpic.com/c1/i2/1723/K7Ow0YWQ.png[/IMG]
[IMG]http://lookpic.com/c1/i2/1805/aBswyVHv.png[/IMG]
[IMG]http://lookpic.com/c1/i2/2744/AAbYIqlL.png[/IMG]
[IMG]http://lookpic.com/c1/i2/2960/jvhIgjo1.png[/IMG]
[IMG]http://lookpic.com/c1/i2/1969/Qo0xOqyB.png[/IMG]
[IMG]http://lookpic.com/c1/i2/227/HLg8lcLH.png[/IMG]
[IMG]http://lookpic.com/c1/i2/93/mQ8pnJvk.png[/IMG]
[IMG]http://lookpic.com/c1/i2/2964/yWrrkK0t.png[/IMG]
[IMG]http://lookpic.com/c1/i2/190/YEEMihaC.png[/IMG]
[IMG]http://lookpic.com/c1/i2/959/hqwKDzUl.png[/IMG]
[IMG]http://lookpic.com/c1/i2/3440/YitDmR5z.png[/IMG]
[IMG]http://lookpic.com/c1/i2/1531/QzH5GXqf.png[/IMG]
[IMG]http://lookpic.com/c1/i2/2048/bkfU6aMB.png[/IMG]


[IMG]http://lookpic.com/c1/i2/2313/YYWi6zwl.gif[/IMG]

[size=3][color=green]Okay I realise this is not anime but I think this movie would have been better suited to the genre ... is there any anime fans out there who remember the Guyver movie ? well this is just the same the special effects are so bad its almost corny :lmao: but watch it anyway just for a laugh [/color][/size]


[b][size=4][color=red]i[/color][color=grey]N[/color][color=red]i[/color][color=grey]T[/color][color=red]i[/color][color=grey]ALan[/color][color=blue]I[/color][color=grey]me[/color][/size][/b]
[color=darkorange]greets to[/color] 
[color=blue]jaiwalla, amartis, bigspawn DiVERSiTY RG, all the staff at speed.cd & all the people who make p2p what is[/color]
[color=red]Remember p[/color][color=blue]2[/color][color=red]p is about more than free movies and music its a community be involved!! Dont Hit and Run !! Seed back what you leech!![/color]

[center][IMG]http://lookpic.com/c1/i2/1809/zzvtM5FS.png[/IMG][/center]


[b][size=4][color=red]i[/color][color=grey]N[/color][color=red]i[/color][color=grey]T[/color][color=red]i[/color][color=grey]ALan[/color][color=blue]I[/color][color=grey]me[/color][/size][/b][color=darkorange]Is looking for members have you got something to offer? Wanted -anime sources- encoders-cover art-seedbox's  contact us at[/color][color=cyan] initialanime@yahoo.com[/color]











INITIALANIME 2011